<svg width="393" height="852" viewBox="0 0 393 852" fill="none" xmlns="http://www.w3.org/2000/svg">
<rect width="393" height="852" fill="url(#paint0_linear_216_2369)"/>
<g filter="url(#filter0_d_216_2369)">
<mask id="path-1-outside-1_216_2369" maskUnits="userSpaceOnUse" x="111" y="401" width="53" height="62" fill="black">
<rect fill="white" x="111" y="401" width="53" height="62"/>
<path d="M120.72 461C118.053 461 116.027 460.173 114.64 458.52C113.253 456.867 112.56 454.653 112.56 451.88V414.36C112.56 411.587 113.067 409.347 114.08 407.64C115.147 405.88 116.507 404.6 118.16 403.8C119.867 403 121.707 402.6 123.68 402.6C126.613 402.6 129.093 403.373 131.12 404.92C133.147 406.467 134.72 409.187 135.84 413.08L144.48 442.6H145.76V411.88C145.76 409.053 146.48 406.84 147.92 405.24C149.36 403.587 151.413 402.76 154.08 402.76C156.853 402.76 158.907 403.587 160.24 405.24C161.627 406.84 162.32 409.053 162.32 411.88V448.04C162.32 452.52 161.333 455.827 159.36 457.96C157.387 460.093 154.613 461.16 151.04 461.16C147.413 461.16 144.587 460.2 142.56 458.28C140.533 456.36 138.987 453.533 137.92 449.8L132.24 430.36C132.133 429.827 131.92 429.347 131.6 428.92C131.333 428.44 130.96 428.2 130.48 428.2C129.893 428.2 129.493 428.44 129.28 428.92C129.067 429.347 128.96 429.827 128.96 430.36V451.88C128.96 454.653 128.267 456.867 126.88 458.52C125.493 460.173 123.44 461 120.72 461Z"/>
</mask>
<path d="M120.72 461C118.053 461 116.027 460.173 114.64 458.52C113.253 456.867 112.56 454.653 112.56 451.88V414.36C112.56 411.587 113.067 409.347 114.08 407.64C115.147 405.88 116.507 404.6 118.16 403.8C119.867 403 121.707 402.6 123.68 402.6C126.613 402.6 129.093 403.373 131.12 404.92C133.147 406.467 134.72 409.187 135.84 413.08L144.48 442.6H145.76V411.88C145.76 409.053 146.48 406.84 147.92 405.24C149.36 403.587 151.413 402.76 154.08 402.76C156.853 402.76 158.907 403.587 160.24 405.24C161.627 406.84 162.32 409.053 162.32 411.88V448.04C162.32 452.52 161.333 455.827 159.36 457.96C157.387 460.093 154.613 461.16 151.04 461.16C147.413 461.16 144.587 460.2 142.56 458.28C140.533 456.36 138.987 453.533 137.92 449.8L132.24 430.36C132.133 429.827 131.92 429.347 131.6 428.92C131.333 428.44 130.96 428.2 130.48 428.2C129.893 428.2 129.493 428.44 129.28 428.92C129.067 429.347 128.96 429.827 128.96 430.36V451.88C128.96 454.653 128.267 456.867 126.88 458.52C125.493 460.173 123.44 461 120.72 461Z" fill="white" shape-rendering="crispEdges"/>
<path d="M114.64 458.52L113.874 459.163L114.64 458.52ZM114.08 407.64L113.225 407.122L113.22 407.129L114.08 407.64ZM118.16 403.8L117.736 402.894L117.724 402.9L118.16 403.8ZM131.12 404.92L130.513 405.715V405.715L131.12 404.92ZM135.84 413.08L134.879 413.356L134.88 413.361L135.84 413.08ZM144.48 442.6L143.52 442.881L143.731 443.6H144.48V442.6ZM145.76 442.6V443.6H146.76V442.6H145.76ZM147.92 405.24L148.663 405.909L148.669 405.903L148.674 405.897L147.92 405.24ZM160.24 405.24L159.462 405.868L159.473 405.882L159.484 405.895L160.24 405.24ZM159.36 457.96L158.626 457.281L159.36 457.96ZM142.56 458.28L141.872 459.006L142.56 458.28ZM137.92 449.8L138.882 449.525L138.88 449.52L137.92 449.8ZM132.24 430.36L131.259 430.556L131.268 430.599L131.28 430.64L132.24 430.36ZM131.6 428.92L130.726 429.406L130.759 429.465L130.8 429.52L131.6 428.92ZM129.28 428.92L130.174 429.367L130.185 429.347L130.194 429.326L129.28 428.92ZM120.72 461V460C118.273 460 116.559 459.252 115.406 457.877L114.64 458.52L113.874 459.163C115.494 461.095 117.834 462 120.72 462V461ZM114.64 458.52L115.406 457.877C114.209 456.45 113.56 454.487 113.56 451.88H112.56H111.56C111.56 454.82 112.297 457.283 113.874 459.163L114.64 458.52ZM112.56 451.88H113.56V414.36H112.56H111.56V451.88H112.56ZM112.56 414.36H113.56C113.56 411.698 114.048 409.653 114.94 408.151L114.08 407.64L113.22 407.129C112.086 409.04 111.56 411.475 111.56 414.36H112.56ZM114.08 407.64L114.935 408.158C115.914 406.543 117.136 405.406 118.596 404.7L118.16 403.8L117.724 402.9C115.877 403.794 114.379 405.217 113.225 407.122L114.08 407.64ZM118.16 403.8L118.584 404.705C120.152 403.971 121.846 403.6 123.68 403.6V402.6V401.6C121.567 401.6 119.581 402.029 117.736 402.895L118.16 403.8ZM123.68 402.6V403.6C126.429 403.6 128.686 404.321 130.513 405.715L131.12 404.92L131.727 404.125C129.5 402.426 126.798 401.6 123.68 401.6V402.6ZM131.12 404.92L130.513 405.715C132.295 407.075 133.786 409.557 134.879 413.356L135.84 413.08L136.801 412.804C135.654 408.817 133.998 405.859 131.727 404.125L131.12 404.92ZM135.84 413.08L134.88 413.361L143.52 442.881L144.48 442.6L145.44 442.319L136.8 412.799L135.84 413.08ZM144.48 442.6V443.6H145.76V442.6V441.6H144.48V442.6ZM145.76 442.6H146.76V411.88H145.76H144.76V442.6H145.76ZM145.76 411.88H146.76C146.76 409.221 147.435 407.274 148.663 405.909L147.92 405.24L147.177 404.571C145.525 406.406 144.76 408.885 144.76 411.88H145.76ZM147.92 405.24L148.674 405.897C149.884 404.508 151.634 403.76 154.08 403.76V402.76V401.76C151.192 401.76 148.836 402.665 147.166 404.583L147.92 405.24ZM154.08 402.76V403.76C156.651 403.76 158.373 404.518 159.462 405.868L160.24 405.24L161.018 404.612C159.44 402.656 157.056 401.76 154.08 401.76V402.76ZM160.24 405.24L159.484 405.895C160.667 407.26 161.32 409.212 161.32 411.88H162.32H163.32C163.32 408.894 162.586 406.42 160.996 404.585L160.24 405.24ZM162.32 411.88H161.32V448.04H162.32H163.32V411.88H162.32ZM162.32 448.04H161.32C161.32 452.4 160.356 455.411 158.626 457.281L159.36 457.96L160.094 458.639C162.311 456.243 163.32 452.64 163.32 448.04H162.32ZM159.36 457.96L158.626 457.281C156.884 459.164 154.403 460.16 151.04 460.16V461.16V462.16C154.823 462.16 157.889 461.023 160.094 458.639L159.36 457.96ZM151.04 461.16V460.16C147.59 460.16 145.038 459.25 143.248 457.554L142.56 458.28L141.872 459.006C144.135 461.15 147.237 462.16 151.04 462.16V461.16ZM142.56 458.28L143.248 457.554C141.392 455.796 139.917 453.151 138.882 449.525L137.92 449.8L136.958 450.075C138.056 453.916 139.674 456.924 141.872 459.006L142.56 458.28ZM137.92 449.8L138.88 449.52L133.2 430.08L132.24 430.36L131.28 430.64L136.96 450.08L137.92 449.8ZM132.24 430.36L133.221 430.164C133.085 429.487 132.811 428.869 132.4 428.32L131.6 428.92L130.8 429.52C131.029 429.825 131.181 430.166 131.259 430.556L132.24 430.36ZM131.6 428.92L132.474 428.434C132.062 427.692 131.382 427.2 130.48 427.2V428.2V429.2C130.545 429.2 130.567 429.213 130.579 429.221C130.598 429.233 130.654 429.276 130.726 429.406L131.6 428.92ZM130.48 428.2V427.2C130.052 427.2 129.616 427.288 129.226 427.523C128.827 427.761 128.545 428.111 128.366 428.514L129.28 428.92L130.194 429.326C130.212 429.284 130.228 429.263 130.236 429.253C130.244 429.245 130.249 429.241 130.254 429.237C130.264 429.232 130.322 429.2 130.48 429.2V428.2ZM129.28 428.92L128.386 428.473C128.095 429.054 127.96 429.69 127.96 430.36H128.96H129.96C129.96 429.963 130.038 429.639 130.174 429.367L129.28 428.92ZM128.96 430.36H127.96V451.88H128.96H129.96V430.36H128.96ZM128.96 451.88H127.96C127.96 454.487 127.311 456.45 126.114 457.877L126.88 458.52L127.646 459.163C129.223 457.283 129.96 454.82 129.96 451.88H128.96ZM126.88 458.52L126.114 457.877C124.965 459.247 123.228 460 120.72 460V461V462C123.652 462 126.022 461.1 127.646 459.163L126.88 458.52Z" fill="black" fill-opacity="0.2" mask="url(#path-1-outside-1_216_2369)"/>
</g>
<g filter="url(#filter1_d_216_2369)">
<mask id="path-3-outside-2_216_2369" maskUnits="userSpaceOnUse" x="160" y="403" width="69" height="58" fill="black">
<rect fill="white" x="160" y="403" width="69" height="58"/>
<path d="M161.73 433.6C161.73 430.24 162.06 426.85 162.72 423.43C163.44 420.07 164.46 416.95 165.78 414.07C167.16 411.25 168.81 408.97 170.73 407.23C172.71 405.49 174.99 404.62 177.57 404.62C180.87 404.62 183.51 405.67 185.49 407.77C187.47 409.87 188.4 412.33 188.28 415.15C188.22 417.37 187.74 419.59 186.84 421.81C186 424.03 185.16 426.28 184.32 428.56C183.48 430.9 183.06 433.24 183.06 435.58C183.06 437.92 183.36 439.54 183.96 440.44C184.56 441.34 185.37 441.79 186.39 441.79C187.59 441.79 188.58 441.16 189.36 439.9C190.14 438.64 190.74 437.05 191.16 435.13L192.24 430.72C193.32 426.16 194.52 422.08 195.84 418.48C197.22 414.88 199.02 412.03 201.24 409.93C203.52 407.89 206.55 406.87 210.33 406.87C214.47 406.87 217.83 408.01 220.41 410.29C223.05 412.57 224.97 415.66 226.17 419.56C227.37 423.46 227.97 427.81 227.97 432.61C227.97 437.53 227.46 441.85 226.44 445.57C225.42 449.29 223.95 452.17 222.03 454.21C220.11 456.31 217.77 457.36 215.01 457.36C212.07 457.36 209.76 456.55 208.08 454.93C206.46 453.37 205.65 451.27 205.65 448.63C205.65 446.89 205.95 445.06 206.55 443.14C207.15 441.28 207.72 439.3 208.26 437.2C208.86 435.16 209.16 432.97 209.16 430.63C209.16 428.53 208.83 426.94 208.17 425.86C207.57 424.78 206.76 424.24 205.74 424.24C204.48 424.24 203.55 424.96 202.95 426.4C202.35 427.84 201.63 430.21 200.79 433.51L199.62 438.55C198.6 442.69 197.37 446.32 195.93 449.44C194.49 452.56 192.6 454.99 190.26 456.73C187.92 458.47 184.86 459.34 181.08 459.34C176.52 459.34 172.8 458.26 169.92 456.1C167.1 453.94 165.03 450.94 163.71 447.1C162.39 443.26 161.73 438.76 161.73 433.6Z"/>
</mask>
<path d="M161.73 433.6C161.73 430.24 162.06 426.85 162.72 423.43C163.44 420.07 164.46 416.95 165.78 414.07C167.16 411.25 168.81 408.97 170.73 407.23C172.71 405.49 174.99 404.62 177.57 404.62C180.87 404.62 183.51 405.67 185.49 407.77C187.47 409.87 188.4 412.33 188.28 415.15C188.22 417.37 187.74 419.59 186.84 421.81C186 424.03 185.16 426.28 184.32 428.56C183.48 430.9 183.06 433.24 183.06 435.58C183.06 437.92 183.36 439.54 183.96 440.44C184.56 441.34 185.37 441.79 186.39 441.79C187.59 441.79 188.58 441.16 189.36 439.9C190.14 438.64 190.74 437.05 191.16 435.13L192.24 430.72C193.32 426.16 194.52 422.08 195.84 418.48C197.22 414.88 199.02 412.03 201.24 409.93C203.52 407.89 206.55 406.87 210.33 406.87C214.47 406.87 217.83 408.01 220.41 410.29C223.05 412.57 224.97 415.66 226.17 419.56C227.37 423.46 227.97 427.81 227.97 432.61C227.97 437.53 227.46 441.85 226.44 445.57C225.42 449.29 223.95 452.17 222.03 454.21C220.11 456.31 217.77 457.36 215.01 457.36C212.07 457.36 209.76 456.55 208.08 454.93C206.46 453.37 205.65 451.27 205.65 448.63C205.65 446.89 205.95 445.06 206.55 443.14C207.15 441.28 207.72 439.3 208.26 437.2C208.86 435.16 209.16 432.97 209.16 430.63C209.16 428.53 208.83 426.94 208.17 425.86C207.57 424.78 206.76 424.24 205.74 424.24C204.48 424.24 203.55 424.96 202.95 426.4C202.35 427.84 201.63 430.21 200.79 433.51L199.62 438.55C198.6 442.69 197.37 446.32 195.93 449.44C194.49 452.56 192.6 454.99 190.26 456.73C187.92 458.47 184.86 459.34 181.08 459.34C176.52 459.34 172.8 458.26 169.92 456.1C167.1 453.94 165.03 450.94 163.71 447.1C162.39 443.26 161.73 438.76 161.73 433.6Z" fill="white" shape-rendering="crispEdges"/>
<path d="M162.72 423.43L161.742 423.22L161.74 423.23L161.738 423.241L162.72 423.43ZM165.78 414.07L164.882 413.63L164.876 413.642L164.871 413.653L165.78 414.07ZM170.73 407.23L170.07 406.479L170.064 406.484L170.058 406.489L170.73 407.23ZM185.49 407.77L186.218 407.084L185.49 407.77ZM188.28 415.15L187.281 415.107L187.281 415.115L187.28 415.123L188.28 415.15ZM186.84 421.81L185.913 421.434L185.909 421.445L185.905 421.456L186.84 421.81ZM184.32 428.56L183.382 428.214L183.379 428.222L184.32 428.56ZM183.96 440.44L184.792 439.885L183.96 440.44ZM189.36 439.9L190.21 440.426L189.36 439.9ZM191.16 435.13L190.189 434.892L190.186 434.904L190.183 434.916L191.16 435.13ZM192.24 430.72L193.211 430.958L193.213 430.95L192.24 430.72ZM195.84 418.48L194.906 418.122L194.904 418.129L194.901 418.136L195.84 418.48ZM201.24 409.93L200.573 409.185L200.563 409.194L200.553 409.204L201.24 409.93ZM220.41 410.29L219.748 411.039L219.756 411.047L220.41 410.29ZM226.17 419.56L227.126 419.266L226.17 419.56ZM226.44 445.57L225.476 445.306L226.44 445.57ZM222.03 454.21L221.302 453.525L221.297 453.53L221.292 453.535L222.03 454.21ZM208.08 454.93L208.774 454.21L208.774 454.21L208.08 454.93ZM206.55 443.14L205.598 442.833L205.596 442.842L206.55 443.14ZM208.26 437.2L207.301 436.918L207.296 436.934L207.292 436.951L208.26 437.2ZM208.17 425.86L207.296 426.346L207.306 426.364L207.317 426.381L208.17 425.86ZM202.95 426.4L202.027 426.015L202.95 426.4ZM200.79 433.51L199.821 433.263L199.818 433.274L199.816 433.284L200.79 433.51ZM199.62 438.55L200.591 438.789L200.594 438.776L199.62 438.55ZM195.93 449.44L195.022 449.021V449.021L195.93 449.44ZM190.26 456.73L189.663 455.928V455.928L190.26 456.73ZM169.92 456.1L169.312 456.894L169.32 456.9L169.92 456.1ZM163.71 447.1L164.656 446.775L163.71 447.1ZM161.73 433.6H162.73C162.73 430.306 163.053 426.979 163.702 423.619L162.72 423.43L161.738 423.241C161.067 426.721 160.73 430.174 160.73 433.6H161.73ZM162.72 423.43L163.698 423.64C164.404 420.345 165.402 417.295 166.689 414.487L165.78 414.07L164.871 413.653C163.518 416.605 162.476 419.795 161.742 423.22L162.72 423.43ZM165.78 414.07L166.678 414.51C168.014 411.78 169.593 409.61 171.402 407.971L170.73 407.23L170.058 406.489C168.027 408.33 166.306 410.72 164.882 413.63L165.78 414.07ZM170.73 407.23L171.39 407.981C173.192 406.398 175.239 405.62 177.57 405.62V404.62V403.62C174.741 403.62 172.228 404.582 170.07 406.479L170.73 407.23ZM177.57 404.62V405.62C180.638 405.62 182.999 406.586 184.762 408.456L185.49 407.77L186.218 407.084C184.021 404.754 181.102 403.62 177.57 403.62V404.62ZM185.49 407.77L184.762 408.456C186.562 410.365 187.389 412.564 187.281 415.107L188.28 415.15L189.279 415.193C189.411 412.096 188.378 409.375 186.218 407.084L185.49 407.77ZM188.28 415.15L187.28 415.123C187.224 417.214 186.772 419.316 185.913 421.434L186.84 421.81L187.767 422.186C188.708 419.864 189.216 417.526 189.28 415.177L188.28 415.15ZM186.84 421.81L185.905 421.456C185.064 423.679 184.223 425.932 183.382 428.214L184.32 428.56L185.258 428.906C186.097 426.628 186.936 424.381 187.775 422.164L186.84 421.81ZM184.32 428.56L183.379 428.222C182.502 430.664 182.06 433.118 182.06 435.58H183.06H184.06C184.06 433.362 184.458 431.136 185.261 428.898L184.32 428.56ZM183.06 435.58H182.06C182.06 437.935 182.349 439.826 183.128 440.995L183.96 440.44L184.792 439.885C184.371 439.254 184.06 437.905 184.06 435.58H183.06ZM183.96 440.44L183.128 440.995C183.9 442.153 185.012 442.79 186.39 442.79V441.79V440.79C185.728 440.79 185.22 440.527 184.792 439.885L183.96 440.44ZM186.39 441.79V442.79C188.021 442.79 189.297 441.901 190.21 440.426L189.36 439.9L188.51 439.374C187.863 440.419 187.159 440.79 186.39 440.79V441.79ZM189.36 439.9L190.21 440.426C191.066 439.044 191.7 437.34 192.137 435.344L191.16 435.13L190.183 434.916C189.78 436.76 189.214 438.236 188.51 439.374L189.36 439.9ZM191.16 435.13L192.131 435.368L193.211 430.958L192.24 430.72L191.269 430.482L190.189 434.892L191.16 435.13ZM192.24 430.72L193.213 430.95C194.286 426.421 195.475 422.38 196.779 418.824L195.84 418.48L194.901 418.136C193.565 421.78 192.354 425.899 191.267 430.49L192.24 430.72ZM195.84 418.48L196.774 418.838C198.114 415.342 199.841 412.63 201.927 410.656L201.24 409.93L200.553 409.204C198.199 411.43 196.326 414.418 194.906 418.122L195.84 418.48ZM201.24 409.93L201.907 410.675C203.963 408.836 206.736 407.87 210.33 407.87V406.87V405.87C206.364 405.87 203.077 406.944 200.573 409.185L201.24 409.93ZM210.33 406.87V407.87C214.278 407.87 217.386 408.952 219.748 411.039L220.41 410.29L221.072 409.541C218.274 407.068 214.662 405.87 210.33 405.87V406.87ZM220.41 410.29L219.756 411.047C222.232 413.184 224.06 416.103 225.214 419.854L226.17 419.56L227.126 419.266C225.88 415.217 223.868 411.956 221.064 409.533L220.41 410.29ZM226.17 419.56L225.214 419.854C226.38 423.644 226.97 427.893 226.97 432.61H227.97H228.97C228.97 427.727 228.36 423.276 227.126 419.266L226.17 419.56ZM227.97 432.61H226.97C226.97 437.464 226.467 441.692 225.476 445.306L226.44 445.57L227.404 445.834C228.453 442.008 228.97 437.596 228.97 432.61H227.97ZM226.44 445.57L225.476 445.306C224.483 448.924 223.076 451.64 221.302 453.525L222.03 454.21L222.758 454.895C224.824 452.7 226.357 449.656 227.404 445.834L226.44 445.57ZM222.03 454.21L221.292 453.535C219.555 455.435 217.48 456.36 215.01 456.36V457.36V458.36C218.06 458.36 220.665 457.185 222.768 454.885L222.03 454.21ZM215.01 457.36V456.36C212.258 456.36 210.223 455.607 208.774 454.21L208.08 454.93L207.386 455.65C209.297 457.493 211.882 458.36 215.01 458.36V457.36ZM208.08 454.93L208.774 454.21C207.383 452.871 206.65 451.049 206.65 448.63H205.65H204.65C204.65 451.491 205.537 453.869 207.386 455.65L208.08 454.93ZM205.65 448.63H206.65C206.65 447.006 206.93 445.276 207.504 443.438L206.55 443.14L205.596 442.842C204.97 444.844 204.65 446.774 204.65 448.63H205.65ZM206.55 443.14L207.502 443.447C208.109 441.566 208.684 439.566 209.228 437.449L208.26 437.2L207.292 436.951C206.756 439.034 206.191 440.994 205.598 442.833L206.55 443.14ZM208.26 437.2L209.219 437.482C209.849 435.342 210.16 433.056 210.16 430.63H209.16H208.16C208.16 432.884 207.871 434.978 207.301 436.918L208.26 437.2ZM209.16 430.63H210.16C210.16 428.454 209.823 426.648 209.023 425.339L208.17 425.86L207.317 426.381C207.837 427.232 208.16 428.606 208.16 430.63H209.16ZM208.17 425.86L209.044 425.374C208.312 424.056 207.206 423.24 205.74 423.24V424.24V425.24C206.314 425.24 206.828 425.504 207.296 426.346L208.17 425.86ZM205.74 424.24V423.24C204.905 423.24 204.138 423.484 203.485 423.989C202.846 424.485 202.373 425.186 202.027 426.015L202.95 426.4L203.873 426.785C204.127 426.174 204.419 425.795 204.71 425.571C204.987 425.356 205.315 425.24 205.74 425.24V424.24ZM202.95 426.4L202.027 426.015C201.397 427.527 200.662 429.958 199.821 433.263L200.79 433.51L201.759 433.757C202.598 430.462 203.303 428.153 203.873 426.785L202.95 426.4ZM200.79 433.51L199.816 433.284L198.646 438.324L199.62 438.55L200.594 438.776L201.764 433.736L200.79 433.51ZM199.62 438.55L198.649 438.311C197.641 442.403 196.43 445.971 195.022 449.021L195.93 449.44L196.838 449.859C198.31 446.669 199.559 442.977 200.591 438.789L199.62 438.55ZM195.93 449.44L195.022 449.021C193.64 452.016 191.847 454.304 189.663 455.928L190.26 456.73L190.857 457.532C193.353 455.676 195.34 453.104 196.838 449.859L195.93 449.44ZM190.26 456.73L189.663 455.928C187.541 457.506 184.709 458.34 181.08 458.34V459.34V460.34C185.011 460.34 188.299 459.434 190.857 457.532L190.26 456.73ZM181.08 459.34V458.34C176.678 458.34 173.185 457.299 170.52 455.3L169.92 456.1L169.32 456.9C172.415 459.221 176.362 460.34 181.08 460.34V459.34ZM169.92 456.1L170.528 455.306C167.886 453.282 165.921 450.456 164.656 446.775L163.71 447.1L162.764 447.425C164.139 451.424 166.314 454.598 169.312 456.894L169.92 456.1ZM163.71 447.1L164.656 446.775C163.38 443.063 162.73 438.678 162.73 433.6H161.73H160.73C160.73 438.842 161.4 443.457 162.764 447.425L163.71 447.1Z" fill="black" fill-opacity="0.2" mask="url(#path-3-outside-2_216_2369)"/>
</g>
<g filter="url(#filter2_d_216_2369)">
<mask id="path-5-outside-3_216_2369" maskUnits="userSpaceOnUse" x="226" y="400" width="57" height="63" fill="black">
<rect fill="white" x="226" y="400" width="57" height="63"/>
<path d="M248.88 461.48C244.613 461.48 240.907 460.253 237.76 457.8C234.613 455.293 232.187 451.88 230.48 447.56C228.773 443.187 227.92 438.253 227.92 432.76C227.92 427.64 228.667 423.16 230.16 419.32C231.707 415.427 233.787 412.2 236.4 409.64C239.067 407.027 242.133 405.08 245.6 403.8C249.12 402.467 252.827 401.8 256.72 401.8C263.867 401.8 269.147 402.813 272.56 404.84C276.027 406.813 277.76 409.373 277.76 412.52C277.76 414.973 277.12 417.133 275.84 419C274.613 420.867 272.747 421.8 270.24 421.8C268.533 421.8 266.907 421.64 265.36 421.32C263.867 421 262.32 420.707 260.72 420.44C259.173 420.12 257.44 419.96 255.52 419.96C251.307 419.96 248.267 421.16 246.4 423.56C244.587 425.96 243.68 428.973 243.68 432.6C243.68 435.533 244.267 437.933 245.44 439.8C246.667 441.667 248.267 443.053 250.24 443.96C252.267 444.813 254.507 445.24 256.96 445.24C258.987 445.24 260.88 444.787 262.64 443.88C264.4 442.973 265.52 441.293 266 438.84H262.08C260.213 438.84 258.773 438.28 257.76 437.16C256.747 435.987 256.24 434.493 256.24 432.68C256.24 430.867 256.747 429.4 257.76 428.28C258.773 427.16 260.213 426.6 262.08 426.6H271.68C275.147 426.6 277.573 427.533 278.96 429.4C280.4 431.213 281.12 433.933 281.12 437.56V452.52C281.12 455.293 280.373 457.4 278.88 458.84C277.387 460.28 275.413 461 272.96 461C270.347 461 268.293 460.28 266.8 458.84C265.307 457.4 264.56 455.293 264.56 452.52V447.56H263.12C263.12 452.413 261.893 455.96 259.44 458.2C256.987 460.387 253.707 461.48 249.6 461.48H248.88Z"/>
</mask>
<path d="M248.88 461.48C244.613 461.48 240.907 460.253 237.76 457.8C234.613 455.293 232.187 451.88 230.48 447.56C228.773 443.187 227.92 438.253 227.92 432.76C227.92 427.64 228.667 423.16 230.16 419.32C231.707 415.427 233.787 412.2 236.4 409.64C239.067 407.027 242.133 405.08 245.6 403.8C249.12 402.467 252.827 401.8 256.72 401.8C263.867 401.8 269.147 402.813 272.56 404.84C276.027 406.813 277.76 409.373 277.76 412.52C277.76 414.973 277.12 417.133 275.84 419C274.613 420.867 272.747 421.8 270.24 421.8C268.533 421.8 266.907 421.64 265.36 421.32C263.867 421 262.32 420.707 260.72 420.44C259.173 420.12 257.44 419.96 255.52 419.96C251.307 419.96 248.267 421.16 246.4 423.56C244.587 425.96 243.68 428.973 243.68 432.6C243.68 435.533 244.267 437.933 245.44 439.8C246.667 441.667 248.267 443.053 250.24 443.96C252.267 444.813 254.507 445.24 256.96 445.24C258.987 445.24 260.88 444.787 262.64 443.88C264.4 442.973 265.52 441.293 266 438.84H262.08C260.213 438.84 258.773 438.28 257.76 437.16C256.747 435.987 256.24 434.493 256.24 432.68C256.24 430.867 256.747 429.4 257.76 428.28C258.773 427.16 260.213 426.6 262.08 426.6H271.68C275.147 426.6 277.573 427.533 278.96 429.4C280.4 431.213 281.12 433.933 281.12 437.56V452.52C281.12 455.293 280.373 457.4 278.88 458.84C277.387 460.28 275.413 461 272.96 461C270.347 461 268.293 460.28 266.8 458.84C265.307 457.4 264.56 455.293 264.56 452.52V447.56H263.12C263.12 452.413 261.893 455.96 259.44 458.2C256.987 460.387 253.707 461.48 249.6 461.48H248.88Z" fill="white" shape-rendering="crispEdges"/>
<path d="M237.76 457.8L237.137 458.582L237.145 458.589L237.76 457.8ZM230.48 447.56L229.548 447.924L229.55 447.927L230.48 447.56ZM230.16 419.32L229.231 418.951L229.228 418.958L230.16 419.32ZM236.4 409.64L237.1 410.354L237.1 410.354L236.4 409.64ZM245.6 403.8L245.946 404.738L245.954 404.735L245.6 403.8ZM272.56 404.84L272.049 405.7L272.057 405.705L272.065 405.709L272.56 404.84ZM275.84 419L275.015 418.434L275.01 418.443L275.004 418.451L275.84 419ZM265.36 421.32L265.15 422.298L265.157 422.299L265.36 421.32ZM260.72 420.44L260.517 421.419L260.536 421.423L260.556 421.426L260.72 420.44ZM246.4 423.56L245.611 422.946L245.602 422.957L246.4 423.56ZM245.44 439.8L244.593 440.332L244.599 440.341L244.604 440.349L245.44 439.8ZM250.24 443.96L249.823 444.869L249.837 444.875L249.852 444.882L250.24 443.96ZM262.64 443.88L263.098 444.769L262.64 443.88ZM266 438.84L266.981 439.032L267.215 437.84H266V438.84ZM257.76 437.16L257.003 437.814L257.011 437.822L257.018 437.831L257.76 437.16ZM278.96 429.4L278.157 429.996L278.167 430.009L278.177 430.022L278.96 429.4ZM266.8 458.84L267.494 458.12L266.8 458.84ZM264.56 447.56H265.56V446.56H264.56V447.56ZM263.12 447.56V446.56H262.12V447.56H263.12ZM259.44 458.2L260.105 458.947L260.114 458.938L259.44 458.2ZM248.88 461.48V460.48C244.82 460.48 241.333 459.318 238.375 457.011L237.76 457.8L237.145 458.589C240.48 461.189 244.407 462.48 248.88 462.48V461.48ZM237.76 457.8L238.383 457.018C235.393 454.636 233.062 451.375 231.41 447.193L230.48 447.56L229.55 447.927C231.311 452.385 233.833 455.951 237.137 458.582L237.76 457.8ZM230.48 447.56L231.412 447.196C229.757 442.957 228.92 438.15 228.92 432.76H227.92H226.92C226.92 438.357 227.79 443.416 229.548 447.924L230.48 447.56ZM227.92 432.76H228.92C228.92 427.735 229.653 423.383 231.092 419.682L230.16 419.32L229.228 418.958C227.68 422.937 226.92 427.545 226.92 432.76H227.92ZM230.16 419.32L231.089 419.689C232.592 415.907 234.6 412.803 237.1 410.354L236.4 409.64L235.7 408.926C232.974 411.597 230.821 414.946 229.231 418.951L230.16 419.32ZM236.4 409.64L237.1 410.354C239.667 407.839 242.613 405.969 245.946 404.738L245.6 403.8L245.254 402.862C241.653 404.191 238.466 406.215 235.7 408.926L236.4 409.64ZM245.6 403.8L245.954 404.735C249.357 403.446 252.943 402.8 256.72 402.8V401.8V400.8C252.71 400.8 248.883 401.487 245.246 402.865L245.6 403.8ZM256.72 401.8V402.8C263.811 402.8 268.87 403.812 272.049 405.7L272.56 404.84L273.071 403.98C269.423 401.814 263.923 400.8 256.72 400.8V401.8ZM272.56 404.84L272.065 405.709C275.317 407.56 276.76 409.832 276.76 412.52H277.76H278.76C278.76 408.915 276.737 406.067 273.055 403.971L272.56 404.84ZM277.76 412.52H276.76C276.76 414.789 276.171 416.748 275.015 418.434L275.84 419L276.665 419.566C278.069 417.518 278.76 415.157 278.76 412.52H277.76ZM275.84 419L275.004 418.451C273.988 419.998 272.458 420.8 270.24 420.8V421.8V422.8C273.035 422.8 275.239 421.735 276.676 419.549L275.84 419ZM270.24 421.8V420.8C268.596 420.8 267.038 420.646 265.563 420.341L265.36 421.32L265.157 422.299C266.776 422.634 268.471 422.8 270.24 422.8V421.8ZM265.36 421.32L265.57 420.342C264.06 420.019 262.499 419.723 260.884 419.454L260.72 420.44L260.556 421.426C262.141 421.691 263.673 421.981 265.15 422.298L265.36 421.32ZM260.72 420.44L260.923 419.461C259.297 419.124 257.494 418.96 255.52 418.96V419.96V420.96C257.386 420.96 259.05 421.116 260.517 421.419L260.72 420.44ZM255.52 419.96V418.96C251.125 418.96 247.733 420.218 245.611 422.946L246.4 423.56L247.189 424.174C248.801 422.102 251.489 420.96 255.52 420.96V419.96ZM246.4 423.56L245.602 422.957C243.632 425.564 242.68 428.802 242.68 432.6H243.68H244.68C244.68 429.145 245.541 426.356 247.198 424.163L246.4 423.56ZM243.68 432.6H242.68C242.68 435.661 243.292 438.262 244.593 440.332L245.44 439.8L246.287 439.268C245.242 437.605 244.68 435.406 244.68 432.6H243.68ZM245.44 439.8L244.604 440.349C245.931 442.368 247.674 443.881 249.823 444.869L250.24 443.96L250.657 443.051C248.86 442.225 247.403 440.966 246.276 439.251L245.44 439.8ZM250.24 443.96L249.852 444.882C252.015 445.792 254.389 446.24 256.96 446.24V445.24V444.24C254.625 444.24 252.518 443.834 250.628 443.038L250.24 443.96ZM256.96 445.24V446.24C259.142 446.24 261.193 445.75 263.098 444.769L262.64 443.88L262.182 442.991C260.567 443.823 258.831 444.24 256.96 444.24V445.24ZM262.64 443.88L263.098 444.769C265.199 443.686 266.46 441.699 266.981 439.032L266 438.84L265.019 438.648C264.58 440.888 263.601 442.26 262.182 442.991L262.64 443.88ZM266 438.84V437.84H262.08V438.84V439.84H266V438.84ZM262.08 438.84V437.84C260.424 437.84 259.282 437.352 258.502 436.489L257.76 437.16L257.018 437.831C258.265 439.208 260.003 439.84 262.08 439.84V438.84ZM257.76 437.16L258.517 436.506C257.686 435.545 257.24 434.296 257.24 432.68H256.24H255.24C255.24 434.69 255.807 436.429 257.003 437.814L257.76 437.16ZM256.24 432.68H257.24C257.24 431.062 257.687 429.852 258.502 428.951L257.76 428.28L257.018 427.609C255.807 428.948 255.24 430.671 255.24 432.68H256.24ZM257.76 428.28L258.502 428.951C259.282 428.088 260.424 427.6 262.08 427.6V426.6V425.6C260.003 425.6 258.265 426.232 257.018 427.609L257.76 428.28ZM262.08 426.6V427.6H271.68V426.6V425.6H262.08V426.6ZM271.68 426.6V427.6C274.992 427.6 277.038 428.49 278.157 429.996L278.96 429.4L279.763 428.804C278.108 426.577 275.301 425.6 271.68 425.6V426.6ZM278.96 429.4L278.177 430.022C279.416 431.583 280.12 434.039 280.12 437.56H281.12H282.12C282.12 433.828 281.384 430.844 279.743 428.778L278.96 429.4ZM281.12 437.56H280.12V452.52H281.12H282.12V437.56H281.12ZM281.12 452.52H280.12C280.12 455.117 279.425 456.926 278.186 458.12L278.88 458.84L279.574 459.56C281.322 457.874 282.12 455.47 282.12 452.52H281.12ZM278.88 458.84L278.186 458.12C276.912 459.348 275.205 460 272.96 460V461V462C275.622 462 277.861 461.212 279.574 459.56L278.88 458.84ZM272.96 461V460C270.535 460 268.756 459.337 267.494 458.12L266.8 458.84L266.106 459.56C267.831 461.223 270.158 462 272.96 462V461ZM266.8 458.84L267.494 458.12C266.255 456.926 265.56 455.117 265.56 452.52H264.56H263.56C263.56 455.47 264.358 457.874 266.106 459.56L266.8 458.84ZM264.56 452.52H265.56V447.56H264.56H263.56V452.52H264.56ZM264.56 447.56V446.56H263.12V447.56V448.56H264.56V447.56ZM263.12 447.56H262.12C262.12 452.264 260.931 455.484 258.766 457.462L259.44 458.2L260.114 458.938C262.855 456.436 264.12 452.563 264.12 447.56H263.12ZM259.44 458.2L258.775 457.453C256.547 459.439 253.525 460.48 249.6 460.48V461.48V462.48C253.888 462.48 257.426 461.334 260.105 458.947L259.44 458.2ZM249.6 461.48V460.48H248.88V461.48V462.48H249.6V461.48Z" fill="black" fill-opacity="0.2" mask="url(#path-5-outside-3_216_2369)"/>
</g>
<defs>
<filter id="filter0_d_216_2369" x="111.56" y="401.6" width="56.76" height="65.5601" filterUnits="userSpaceOnUse" color-interpolation-filters="sRGB">
<feFlood flood-opacity="0" result="BackgroundImageFix"/>
<feColorMatrix in="SourceAlpha" type="matrix" values="0 0 0 0 0 0 0 0 0 0 0 0 0 0 0 0 0 0 127 0" result="hardAlpha"/>
<feOffset dx="3" dy="3"/>
<feGaussianBlur stdDeviation="1"/>
<feComposite in2="hardAlpha" operator="out"/>
<feColorMatrix type="matrix" values="0 0 0 0 0 0 0 0 0 0 0 0 0 0 0 0 0 0 0.25 0"/>
<feBlend mode="normal" in2="BackgroundImageFix" result="effect1_dropShadow_216_2369"/>
<feBlend mode="normal" in="SourceGraphic" in2="effect1_dropShadow_216_2369" result="shape"/>
</filter>
<filter id="filter1_d_216_2369" x="160.73" y="403.62" width="73.24" height="61.72" filterUnits="userSpaceOnUse" color-interpolation-filters="sRGB">
<feFlood flood-opacity="0" result="BackgroundImageFix"/>
<feColorMatrix in="SourceAlpha" type="matrix" values="0 0 0 0 0 0 0 0 0 0 0 0 0 0 0 0 0 0 127 0" result="hardAlpha"/>
<feOffset dx="3" dy="3"/>
<feGaussianBlur stdDeviation="1"/>
<feComposite in2="hardAlpha" operator="out"/>
<feColorMatrix type="matrix" values="0 0 0 0 0 0 0 0 0 0 0 0 0 0 0 0 0 0 0.25 0"/>
<feBlend mode="normal" in2="BackgroundImageFix" result="effect1_dropShadow_216_2369"/>
<feBlend mode="normal" in="SourceGraphic" in2="effect1_dropShadow_216_2369" result="shape"/>
</filter>
<filter id="filter2_d_216_2369" x="226.92" y="400.8" width="60.2002" height="66.68" filterUnits="userSpaceOnUse" color-interpolation-filters="sRGB">
<feFlood flood-opacity="0" result="BackgroundImageFix"/>
<feColorMatrix in="SourceAlpha" type="matrix" values="0 0 0 0 0 0 0 0 0 0 0 0 0 0 0 0 0 0 127 0" result="hardAlpha"/>
<feOffset dx="3" dy="3"/>
<feGaussianBlur stdDeviation="1"/>
<feComposite in2="hardAlpha" operator="out"/>
<feColorMatrix type="matrix" values="0 0 0 0 0 0 0 0 0 0 0 0 0 0 0 0 0 0 0.25 0"/>
<feBlend mode="normal" in2="BackgroundImageFix" result="effect1_dropShadow_216_2369"/>
<feBlend mode="normal" in="SourceGraphic" in2="effect1_dropShadow_216_2369" result="shape"/>
</filter>
<linearGradient id="paint0_linear_216_2369" x1="-24.5" y1="-142" x2="377.5" y2="974.5" gradientUnits="userSpaceOnUse">
<stop offset="0.3126" stop-color="#AFD47D"/>
<stop offset="0.769131" stop-color="#FFDD82"/>
</linearGradient>
</defs>
</svg>
