<svg width="94" height="50" viewBox="0 0 94 50" fill="none" xmlns="http://www.w3.org/2000/svg">
<path d="M77.084 0C85.9053 0 93.0566 7.15134 93.0566 15.9727C93.0566 19.3231 92.0237 22.4318 90.2607 25C92.0239 27.5684 93.0566 30.6776 93.0566 34.0283C93.0566 42.8496 85.9052 50.001 77.084 50.001C70.4809 50.0009 64.8144 45.9933 62.3818 40.2783H30.6748C28.2422 45.9933 22.5757 50.0009 15.9727 50.001C7.15139 50.001 8.50466e-05 42.8496 0 34.0283C0 30.6778 1.03196 27.5683 2.79492 25C1.03216 22.4318 5.1876e-05 19.3229 0 15.9727C0 7.15134 7.15134 0 15.9727 0C23.8462 0.000121908 30.3882 5.69746 31.7031 13.1943H61.3535C62.6684 5.69747 69.2104 0.000126517 77.084 0Z" fill="#CBA74E"/>
<path d="M77.2642 2.77783C84.4518 2.77783 90.2788 8.60483 90.2788 15.7925C90.2787 19.3538 88.8465 22.5793 86.5288 24.9292C88.847 27.2792 90.2788 30.5061 90.2788 34.0679C90.2787 41.2555 84.4518 47.0825 77.2642 47.0825C71.3254 47.0824 66.3159 43.1041 64.7544 37.6675H28.3022C26.7407 43.1041 21.7312 47.0824 15.7925 47.0825C8.60488 47.0825 2.7779 41.2555 2.77783 34.0679C2.77783 30.5063 4.20888 27.2791 6.52686 24.9292C4.2094 22.5794 2.7779 19.3535 2.77783 15.7925C2.77783 8.60483 8.60483 2.77783 15.7925 2.77783C22.7009 2.77797 28.3513 8.161 28.7798 14.9614H64.2769C64.7053 8.16098 70.3557 2.77793 77.2642 2.77783Z" fill="#FFDD82"/>
<mask id="mask0_329_2490" style="mask-type:alpha" maskUnits="userSpaceOnUse" x="3" y="3" width="88" height="45">
<path d="M77.4863 3C84.674 3 90.501 8.827 90.501 16.0146C90.5009 19.576 89.0687 22.8015 86.751 25.1514C89.0692 27.5014 90.501 30.7282 90.501 34.29C90.5009 41.4776 84.6739 47.3047 77.4863 47.3047C71.5476 47.3046 66.5381 43.3263 64.9766 37.8896H28.5244C26.9629 43.3263 21.9534 47.3046 16.0146 47.3047C8.82704 47.3047 3.00007 41.4776 3 34.29C3 30.7285 4.43105 27.5013 6.74902 25.1514C4.43156 22.8015 3.00007 19.5757 3 16.0146C3 8.827 8.827 3 16.0146 3C22.9231 3.00014 28.5735 8.38317 29.002 15.1836H64.499C64.9275 8.38318 70.5779 3.00015 77.4863 3Z" fill="#FFDD82"/>
</mask>
<g mask="url(#mask0_329_2490)">
<line x1="-12.5065" y1="10.807" x2="103.238" y2="10.807" stroke="white"/>
<line x1="-12.5065" y1="10.807" x2="103.238" y2="10.807" stroke="white"/>
<line x1="-12.5065" y1="13.0222" x2="103.238" y2="13.0222" stroke="white"/>
<line x1="-12.5065" y1="15.2375" x2="103.238" y2="15.2375" stroke="white"/>
<line x1="-12.5065" y1="15.2375" x2="103.238" y2="15.2375" stroke="white"/>
<line x1="-12.5065" y1="17.4528" x2="103.238" y2="17.4528" stroke="white"/>
<line x1="-12.5065" y1="10.807" x2="103.238" y2="10.807" stroke="white"/>
<line x1="-12.5065" y1="10.807" x2="103.238" y2="10.807" stroke="white"/>
<line x1="-12.5065" y1="13.0222" x2="103.238" y2="13.0222" stroke="white"/>
<line x1="-12.5065" y1="15.2375" x2="103.238" y2="15.2375" stroke="white"/>
<line x1="-12.5065" y1="15.2375" x2="103.238" y2="15.2375" stroke="white"/>
<line x1="-12.5065" y1="4.16138" x2="103.238" y2="4.16138" stroke="white"/>
<line x1="-12.5065" y1="4.16138" x2="103.238" y2="4.16138" stroke="white"/>
<line x1="-12.5065" y1="6.37659" x2="103.238" y2="6.37659" stroke="white"/>
<line x1="-12.5065" y1="8.5918" x2="103.238" y2="8.5918" stroke="white"/>
<line x1="-12.5065" y1="8.5918" x2="103.238" y2="8.5918" stroke="white"/>
<line x1="-12.5065" y1="4.16138" x2="103.238" y2="4.16138" stroke="white"/>
<line x1="-12.5065" y1="4.16138" x2="103.238" y2="4.16138" stroke="white"/>
<line x1="-12.5065" y1="6.37659" x2="103.238" y2="6.37659" stroke="white"/>
<line x1="-12.5065" y1="8.5918" x2="103.238" y2="8.5918" stroke="white"/>
<line x1="-12.5065" y1="8.5918" x2="103.238" y2="8.5918" stroke="white"/>
<line x1="-12.5065" y1="17.4528" x2="103.238" y2="17.4528" stroke="white"/>
<line x1="-12.5065" y1="19.668" x2="103.238" y2="19.668" stroke="white"/>
<line x1="-12.5065" y1="19.668" x2="103.238" y2="19.668" stroke="white"/>
<line x1="-12.5065" y1="21.8832" x2="103.238" y2="21.8832" stroke="white"/>
<line x1="-12.5065" y1="24.0984" x2="103.238" y2="24.0984" stroke="white"/>
<line x1="-12.5065" y1="24.0984" x2="103.238" y2="24.0984" stroke="white"/>
<line x1="-12.5065" y1="26.3136" x2="103.238" y2="26.3136" stroke="white"/>
<line x1="-12.5065" y1="28.5288" x2="103.238" y2="28.5288" stroke="white"/>
<line x1="-12.5065" y1="28.5288" x2="103.238" y2="28.5288" stroke="white"/>
<line x1="-12.5065" y1="30.744" x2="103.238" y2="30.744" stroke="white"/>
<line x1="-12.5065" y1="32.9592" x2="103.238" y2="32.9592" stroke="white"/>
<line x1="-12.5065" y1="32.9592" x2="103.238" y2="32.9592" stroke="white"/>
<line x1="-12.5065" y1="35.1744" x2="103.238" y2="35.1744" stroke="white"/>
<line x1="-12.5065" y1="28.5288" x2="103.238" y2="28.5288" stroke="white"/>
<line x1="-12.5065" y1="28.5288" x2="103.238" y2="28.5288" stroke="white"/>
<line x1="-12.5065" y1="30.744" x2="103.238" y2="30.744" stroke="white"/>
<line x1="-12.5065" y1="32.9592" x2="103.238" y2="32.9592" stroke="white"/>
<line x1="-12.5065" y1="32.9592" x2="103.238" y2="32.9592" stroke="white"/>
<line x1="-12.5065" y1="35.1744" x2="103.238" y2="35.1744" stroke="white"/>
<line x1="-12.5065" y1="37.3896" x2="103.238" y2="37.3896" stroke="white"/>
<line x1="-12.5065" y1="37.3896" x2="103.238" y2="37.3896" stroke="white"/>
<line x1="-12.5065" y1="39.6049" x2="103.238" y2="39.6049" stroke="white"/>
<line x1="-12.5065" y1="41.8201" x2="103.238" y2="41.8201" stroke="white"/>
<line x1="-12.5065" y1="41.8201" x2="103.238" y2="41.8201" stroke="white"/>
<line x1="-12.5065" y1="44.0353" x2="103.238" y2="44.0353" stroke="white"/>
<line x1="-12.5065" y1="46.2505" x2="103.238" y2="46.2505" stroke="white"/>
</g>
</svg>
