<svg width="60" height="60" viewBox="0 0 60 60" fill="none" xmlns="http://www.w3.org/2000/svg">
<circle cx="30" cy="30" r="30" fill="#CBA74E" fill-opacity="0.8"/>
<path d="M28.1991 39.12H29.4691V48.38H28.1991V39.12ZM24.5391 42.67H26.5091V43.73H24.5391V42.67ZM26.2491 39.32H27.4891V47.97H26.2491V39.32ZM24.2391 40.21H25.5191C25.5191 41.09 25.4158 41.91 25.2091 42.67C25.0024 43.43 24.6524 44.1267 24.1591 44.76C23.6724 45.3933 22.9958 45.96 22.1291 46.46L21.3791 45.53C22.0791 45.11 22.6358 44.6533 23.0491 44.16C23.4691 43.66 23.7724 43.11 23.9591 42.51C24.1458 41.9033 24.2391 41.2267 24.2391 40.48V40.21ZM21.8891 40.21H24.6491V41.28H21.8891V40.21ZM37.0583 39.13H38.3883V44.37H37.0583V39.13ZM32.2283 44.78H38.3883V48.29H32.2283V44.78ZM37.0883 45.83H33.5383V47.24H37.0883V45.83ZM33.3483 39.55C33.8283 39.55 34.2583 39.6467 34.6383 39.84C35.0183 40.0267 35.3183 40.2867 35.5383 40.62C35.7583 40.9533 35.8683 41.3367 35.8683 41.77C35.8683 42.2033 35.7583 42.59 35.5383 42.93C35.3183 43.2633 35.0183 43.5267 34.6383 43.72C34.2583 43.9067 33.8283 44 33.3483 44C32.8683 44 32.4383 43.9067 32.0583 43.72C31.6783 43.5267 31.3783 43.2633 31.1583 42.93C30.9383 42.59 30.8283 42.2033 30.8283 41.77C30.8283 41.3367 30.9383 40.9533 31.1583 40.62C31.3783 40.2867 31.6783 40.0267 32.0583 39.84C32.4383 39.6467 32.8683 39.55 33.3483 39.55ZM33.3483 40.65C33.1216 40.65 32.915 40.6967 32.7283 40.79C32.5416 40.8767 32.395 41.0033 32.2883 41.17C32.1816 41.33 32.1283 41.53 32.1283 41.77C32.1283 42.0033 32.1816 42.2067 32.2883 42.38C32.395 42.5467 32.5416 42.6733 32.7283 42.76C32.915 42.8467 33.1216 42.89 33.3483 42.89C33.5816 42.89 33.7883 42.8467 33.9683 42.76C34.155 42.6733 34.3016 42.5467 34.4083 42.38C34.515 42.2067 34.5683 42.0033 34.5683 41.77C34.5683 41.53 34.515 41.33 34.4083 41.17C34.3016 41.0033 34.155 40.8767 33.9683 40.79C33.7883 40.6967 33.5816 40.65 33.3483 40.65Z" fill="white"/>
</svg>
